<svg version="1.1" id="Layer_1" xmlns="http://www.w3.org/2000/svg" xmlns:xlink="http://www.w3.org/1999/xlink" x="0px" y="0px"
	 width="100%" viewBox="0 0 1024 1024" enable-background="new 0 0 1024 1024" xml:space="preserve">
<path fill="none" opacity="1.000000" stroke="none" 
	d="
M542.000000,1025.000000 
	C361.333344,1025.000000 181.166672,1025.000000 1.000000,1025.000000 
	C1.000000,683.666687 1.000000,342.333344 1.000000,1.000000 
	C342.333344,1.000000 683.666687,1.000000 1025.000000,1.000000 
	C1025.000000,342.333344 1025.000000,683.666687 1025.000000,1025.000000 
	C864.166687,1025.000000 703.333313,1025.000000 542.000000,1025.000000 
M691.777100,245.336563 
	C689.178162,241.212936 687.056458,236.668854 683.875000,233.058502 
	C678.292114,226.722885 672.060120,220.959259 665.783142,214.353485 
	C658.511841,209.395691 651.399109,204.180618 643.915771,199.566711 
	C638.552734,196.260071 632.693726,193.758026 626.671875,190.302002 
	C616.000000,186.302689 605.503052,181.714218 594.604675,178.477600 
	C584.650452,175.521393 574.261475,174.028839 563.574463,171.240341 
	C556.387390,170.490326 549.195801,169.781036 542.014160,168.981995 
	C526.241577,167.227081 510.531097,166.699692 494.596741,167.746704 
	C474.058380,169.096222 453.928894,172.012833 433.957336,176.899902 
	C415.409943,181.438492 397.973450,188.781448 381.015076,197.177292 
	C369.616150,202.820709 358.979248,210.002930 347.999695,216.493790 
	C331.674103,226.145096 315.351288,235.801193 299.019196,245.441574 
	C281.982819,255.497711 264.988464,265.627411 247.842300,275.493042 
	C245.103683,277.068787 243.870270,278.425903 243.897141,281.779510 
	C244.083908,305.095154 244.158417,328.414886 243.889755,351.728943 
	C243.815628,358.160706 243.581299,363.935547 251.695221,365.350464 
	C251.977417,365.399658 252.179123,365.804962 252.463196,365.964264 
	C260.290466,370.354675 268.123535,374.734680 276.298492,379.712463 
	C283.002502,383.601593 289.706482,387.490753 296.919098,391.880737 
	C303.003815,395.390320 309.088531,398.899872 315.747925,402.878265 
	C319.609161,405.092285 323.470398,407.306305 327.836792,409.809967 
	C318.851959,414.931488 310.912262,419.526855 302.908112,424.006989 
	C276.717377,438.666595 250.462540,453.212189 224.327271,467.969727 
	C217.928940,471.582611 211.141357,475.023804 205.823074,479.939850 
	C185.504120,498.722015 178.363983,523.217224 177.013275,550.870789 
	C176.711273,553.963928 176.021973,557.077637 176.184464,560.146179 
	C176.574554,567.513428 177.036423,574.906250 178.076614,582.202209 
	C179.359131,591.197632 181.257324,600.105164 182.962448,609.866943 
	C188.274857,625.592712 193.587265,641.318481 199.011368,657.777710 
	C202.318817,664.778748 205.390396,671.904602 209.007172,678.742004 
	C211.983261,684.368164 215.606125,689.652283 219.029449,695.795715 
	C220.316818,698.076599 221.416885,700.490417 222.925003,702.614563 
	C228.506393,710.475708 234.222412,718.241272 240.200882,726.654785 
	C249.760345,737.117126 259.319794,747.579529 269.201263,758.639526 
	C273.797363,762.590759 278.109528,766.947327 283.049438,770.407715 
	C292.919342,777.321533 303.133240,783.744141 313.793030,790.826538 
	C321.827942,794.186951 329.658813,798.201477 337.936615,800.783081 
	C361.241302,808.050964 384.230286,807.455139 405.620605,794.600342 
	C436.341797,776.138000 466.731445,757.124146 497.280670,738.375183 
	C500.920593,736.141357 504.673706,734.091980 508.997986,731.597229 
	C508.997986,758.498047 509.032928,784.316406 508.964386,810.134521 
	C508.952637,814.560059 506.893036,819.872498 508.708527,823.155579 
	C510.468750,826.338928 516.095886,827.274475 519.857971,829.481384 
	C530.213745,835.556396 540.523438,841.712769 550.773865,847.963989 
	C561.383545,854.434265 571.875366,861.098389 582.511230,867.524658 
	C583.370544,868.043884 585.161255,867.762756 586.153259,867.204041 
	C594.180054,862.682312 602.134888,858.031799 610.082153,853.370361 
	C628.666931,842.469421 647.286438,831.626465 665.796326,820.599731 
	C685.518372,808.850891 705.377441,797.304565 724.726074,784.963379 
	C747.265991,770.586731 765.831543,751.609192 782.380432,730.854614 
	C799.788269,709.022949 813.841736,685.028564 824.945007,659.330627 
	C836.361816,632.906982 844.607910,605.525574 846.733643,576.838501 
	C848.369751,554.759521 847.684753,532.518433 838.995911,511.449921 
	C833.028503,496.980377 824.829285,484.106506 811.239319,475.716614 
	C794.320496,465.271545 777.094421,455.324219 759.376648,444.827545 
	C749.701538,439.302094 740.026367,433.776642 730.015381,427.721161 
	C722.343689,423.201904 714.672058,418.682617 706.369324,413.821960 
	C701.079590,411.796448 699.016052,407.995728 699.963440,402.426483 
	C700.150879,401.324860 699.894958,400.147766 699.967346,398.074768 
	C699.925903,392.050903 699.884399,386.027039 699.959839,379.088196 
	C699.920166,375.393524 699.880493,371.698853 699.958923,367.094330 
	C699.920105,363.729706 699.881287,360.365112 699.960022,356.077911 
	C699.920471,351.718353 699.880981,347.358765 699.958862,342.073853 
	C699.919861,337.383575 699.880859,332.693329 699.958862,327.077057 
	C699.920227,322.385010 699.881592,317.692932 699.962219,312.069763 
	C699.975830,306.021393 700.005249,299.972961 699.994873,293.924622 
	C699.990906,291.614563 699.895386,289.304596 699.956299,286.142639 
	C700.028076,284.327545 700.117126,282.512970 700.168945,280.697296 
	C700.519653,268.413452 698.055481,256.780426 691.777100,245.336563 
z"/>
<path fill="#F5AD63" opacity="1.000000" stroke="none" 
	d="
M760.001038,445.161926 
	C777.094421,455.324219 794.320496,465.271545 811.239319,475.716614 
	C824.829285,484.106506 833.028503,496.980377 838.995911,511.449921 
	C847.684753,532.518433 848.369751,554.759521 846.733643,576.838501 
	C844.607910,605.525574 836.361816,632.906982 824.945007,659.330627 
	C813.841736,685.028564 799.788269,709.022949 782.380432,730.854614 
	C765.831543,751.609192 747.265991,770.586731 724.726074,784.963379 
	C705.377441,797.304565 685.518372,808.850891 665.796326,820.599731 
	C647.286438,831.626465 628.666931,842.469421 610.082153,853.370361 
	C602.134888,858.031799 594.180054,862.682312 586.153259,867.204041 
	C585.161255,867.762756 583.370544,868.043884 582.511230,867.524658 
	C571.875366,861.098389 561.383545,854.434265 550.773865,847.963989 
	C540.523438,841.712769 530.213745,835.556396 519.857971,829.481384 
	C516.095886,827.274475 510.468750,826.338928 508.708527,823.155579 
	C506.893036,819.872498 508.952637,814.560059 508.964386,810.134521 
	C509.032928,784.316406 508.997986,758.498047 508.997986,731.597229 
	C504.673706,734.091980 500.920593,736.141357 497.280670,738.375183 
	C466.731445,757.124146 436.341797,776.138000 405.620605,794.600342 
	C384.230286,807.455139 361.241302,808.050964 337.936615,800.783081 
	C329.658813,798.201477 321.827942,794.186951 313.882690,790.441956 
	C314.667114,789.283386 315.361908,788.509399 316.375427,787.934143 
	C321.872864,790.254150 327.008148,792.489624 332.238037,794.475952 
	C349.888489,801.179504 368.036285,803.952209 386.381256,798.361023 
	C412.545319,790.386902 425.866943,770.489868 432.919769,745.483582 
	C437.204102,730.292969 437.472076,714.658264 437.587891,699.001343 
	C438.706421,698.727539 439.617218,698.644775 440.220428,698.170532 
	C446.195801,693.473999 452.109406,688.698792 458.061523,683.972412 
	C470.094910,674.416931 482.074188,664.791321 494.215973,655.375366 
	C499.002625,651.663391 504.163910,648.434509 509.209534,645.452759 
	C509.252167,671.180115 509.258087,696.440308 509.202209,721.700378 
	C509.195953,724.516724 509.271362,726.899658 513.953003,725.406982 
	C513.953003,699.760315 513.953003,673.878174 514.311890,647.963623 
	C516.253601,647.060974 517.986450,646.383057 519.392822,645.286438 
	C524.980835,640.929321 530.434814,636.400879 535.997314,632.010498 
	C547.643250,622.818359 559.224548,613.538757 571.051819,604.584961 
	C574.991638,601.602356 579.600891,599.504028 583.963623,597.466675 
	C584.023193,685.948364 584.023193,773.964783 584.023193,862.734497 
	C586.132324,861.801514 587.960754,861.185547 589.597717,860.238647 
	C605.872314,850.823792 622.182617,841.467712 638.352234,831.874817 
	C665.662537,815.672424 693.178162,799.787476 720.052124,782.885986 
	C749.088806,764.624329 771.981201,739.813416 791.149414,711.585754 
	C818.737427,670.958923 837.619568,626.937317 842.200562,577.508362 
	C844.407837,553.691772 843.065491,530.338745 832.926025,508.196411 
	C822.903381,486.309021 805.926697,472.863831 782.491638,467.863739 
	C768.746338,464.931122 755.327515,468.236298 742.440674,472.512939 
	C732.972107,475.655121 724.126038,480.672821 715.006714,484.497314 
	C716.418518,482.187714 717.478394,479.797516 719.292480,478.357117 
	C728.445251,471.089905 737.894348,464.195465 747.032288,456.910339 
	C751.584167,453.281433 755.692261,449.095764 760.001038,445.161926 
z"/>
<path fill="#27BEF0" opacity="1.000000" stroke="none" 
	d="
M275.955658,379.116394 
	C268.123535,374.734680 260.290466,370.354675 252.463196,365.964264 
	C252.179123,365.804962 251.977417,365.399658 251.695221,365.350464 
	C243.581299,363.935547 243.815628,358.160706 243.889755,351.728943 
	C244.158417,328.414886 244.083908,305.095154 243.897141,281.779510 
	C243.870270,278.425903 245.103683,277.068787 247.842300,275.493042 
	C264.988464,265.627411 281.982819,255.497711 299.019196,245.441574 
	C315.351288,235.801193 331.674103,226.145096 347.999695,216.493790 
	C358.979248,210.002930 369.616150,202.820709 381.015076,197.177292 
	C397.973450,188.781448 415.409943,181.438492 433.957336,176.899902 
	C453.928894,172.012833 474.058380,169.096222 494.596741,167.746704 
	C510.531097,166.699692 526.241577,167.227081 542.014160,168.981995 
	C549.195801,169.781036 556.387390,170.490326 563.681519,171.884583 
	C563.522034,173.633804 563.255493,174.738785 562.594482,175.774200 
	C552.352478,174.473938 542.536438,172.797729 532.651306,172.099838 
	C507.499969,170.324219 482.457184,171.706116 457.597565,175.980133 
	C428.366272,181.005737 400.729523,190.643875 375.064148,205.521744 
	C345.286774,222.783295 315.725342,240.417374 286.067200,257.884644 
	C273.846771,265.081909 261.618500,272.265869 248.992798,279.691711 
	C249.791946,280.286682 250.164597,280.625183 250.590317,280.872253 
	C269.633606,291.924713 288.703369,302.931854 307.719788,314.030304 
	C317.239166,319.586029 326.662292,325.306671 335.815613,331.094788 
	C320.226715,343.212250 304.905609,355.130371 289.702423,367.196991 
	C284.956451,370.963837 280.528961,375.131958 275.955658,379.116394 
z"/>
<path fill="#EAAE6A" opacity="1.000000" stroke="none" 
	d="
M759.688843,444.994751 
	C755.692261,449.095764 751.584167,453.281433 747.032288,456.910339 
	C737.894348,464.195465 728.445251,471.089905 719.292480,478.357117 
	C717.478394,479.797516 716.418518,482.187714 714.688965,484.654175 
	C709.927917,487.738647 705.480286,490.294250 701.050842,492.881134 
	C663.620117,514.741699 626.199402,536.619507 588.729736,558.413086 
	C587.687683,559.019226 585.809082,559.307434 584.872559,558.774292 
	C581.429810,556.814209 578.220154,554.444824 575.061646,551.905518 
	C580.786804,546.935608 586.278625,542.170349 591.976318,537.665466 
	C610.521118,523.003235 629.099731,508.383026 647.742554,493.845612 
	C672.775696,474.325134 697.902039,454.924072 722.924438,435.390015 
	C725.616882,433.288147 727.885803,430.643799 730.351196,428.251160 
	C740.026367,433.776642 749.701538,439.302094 759.688843,444.994751 
z"/>
<path fill="#E0AE71" opacity="1.000000" stroke="none" 
	d="
M730.183289,427.986145 
	C727.885803,430.643799 725.616882,433.288147 722.924438,435.390015 
	C697.902039,454.924072 672.775696,474.325134 647.742554,493.845612 
	C629.099731,508.383026 610.521118,523.003235 591.976318,537.665466 
	C586.278625,542.170349 580.786804,546.935608 574.722534,551.808655 
	C567.114014,547.490784 559.983582,542.945801 552.916687,538.038940 
	C557.216919,534.048645 561.347717,530.287170 565.708313,526.814087 
	C588.341736,508.787384 610.963806,490.745148 633.725342,472.880951 
	C655.705322,455.630188 677.879700,438.627136 699.884033,421.407135 
	C702.527100,419.338806 704.641113,416.594391 707.000366,414.163330 
	C714.672058,418.682617 722.343689,423.201904 730.183289,427.986145 
z"/>
<path fill="#D5AF78" opacity="1.000000" stroke="none" 
	d="
M706.684814,413.992615 
	C704.641113,416.594391 702.527100,419.338806 699.884033,421.407135 
	C677.879700,438.627136 655.705322,455.630188 633.725342,472.880951 
	C610.963806,490.745148 588.341736,508.787384 565.708313,526.814087 
	C561.347717,530.287170 557.216919,534.048645 552.581543,537.914429 
	C546.581482,534.555542 540.980164,530.959351 535.739685,527.189331 
	C546.713928,518.563416 557.270691,510.038910 567.952393,501.673950 
	C590.222412,484.234009 612.576721,466.901489 634.814575,449.420746 
	C635.940186,448.535889 636.296082,446.671722 637.289246,445.042358 
	C640.441589,443.173950 643.315308,441.527161 646.188477,439.879333 
	C661.581909,431.050842 677.002930,422.269379 692.310913,413.295105 
	C693.422302,412.643555 693.712097,410.590515 694.383911,409.189117 
	C692.962769,409.303864 691.325500,409.003357 690.160156,409.609741 
	C686.385925,411.573792 682.784851,413.870636 678.855225,415.857086 
	C678.857971,414.833679 678.858154,413.670288 679.428833,413.201996 
	C684.259399,409.238007 689.118103,405.298187 694.140625,401.584045 
	C695.780396,400.371399 697.928101,399.845459 699.843567,399.005493 
	C699.894958,400.147766 700.150879,401.324860 699.963440,402.426483 
	C699.016052,407.995728 701.079590,411.796448 706.684814,413.992615 
z"/>
<path fill="#3DBCE1" opacity="1.000000" stroke="none" 
	d="
M177.153961,549.990417 
	C178.363983,523.217224 185.504120,498.722015 205.823074,479.939850 
	C211.141357,475.023804 217.928940,471.582611 224.327271,467.969727 
	C250.462540,453.212189 276.717377,438.666595 302.908112,424.006989 
	C310.912262,419.526855 318.851959,414.931488 327.836792,409.809967 
	C323.470398,407.306305 319.609161,405.092285 315.842102,402.488434 
	C329.855957,391.266632 343.847534,380.525299 357.663025,369.562042 
	C363.968689,364.558167 369.926910,359.116394 376.387909,353.959106 
	C382.487457,357.363739 388.241791,360.682526 393.695312,364.145508 
	C378.555237,376.213379 363.672424,388.083527 348.906616,400.097412 
	C345.084167,403.207489 341.628387,406.768250 337.658661,410.215027 
	C336.268372,411.187958 335.223602,412.067810 333.799377,412.965851 
	C332.252167,413.520081 330.912872,413.843414 329.943268,414.625275 
	C320.527405,422.217834 311.277710,430.019623 301.774597,437.499939 
	C290.843353,446.104340 279.657959,454.385590 268.705078,462.963074 
	C267.119446,464.204803 266.214630,466.315887 264.537781,468.042114 
	C254.039062,468.536163 243.686798,467.627319 234.023697,469.793213 
	C216.786652,473.656708 204.063538,484.576569 194.915298,499.737244 
	C185.569611,515.225220 182.592453,532.419006 180.450256,549.993896 
	C179.107193,549.996460 178.130569,549.993469 177.153961,549.990417 
z"/>
<path fill="#AAB396" opacity="1.000000" stroke="none" 
	d="
M699.842957,313.000885 
	C699.881592,317.692932 699.920227,322.385010 699.560547,327.580902 
	C697.628906,329.035919 695.985840,329.848328 694.579407,330.959930 
	C682.383301,340.598907 670.271729,350.344910 658.053345,359.955292 
	C642.066040,372.530182 625.965881,384.961731 609.987122,397.547394 
	C597.644043,407.269501 585.442261,417.170776 573.124329,426.924988 
	C559.769836,437.500000 546.420166,448.083252 532.934204,458.488983 
	C526.816956,463.208954 520.375977,467.509308 514.022400,471.535400 
	C513.991699,465.712708 514.020386,460.354675 514.394592,454.959534 
	C524.442993,447.493805 534.223083,440.163574 543.833313,432.616974 
	C566.979065,414.441284 590.091431,396.222229 613.104309,377.878937 
	C617.662292,374.245850 621.714844,369.978668 626.206177,365.734924 
	C632.786194,361.626709 639.407227,358.138824 645.483276,353.874359 
	C657.771851,345.249695 669.957764,336.432556 680.259399,324.973572 
	C681.907288,324.343414 683.251282,323.816925 684.442322,323.052063 
	C689.600281,319.739655 694.713440,316.357574 699.842957,313.000885 
z"/>
<path fill="#B3B28F" opacity="1.000000" stroke="none" 
	d="
M514.081787,472.000000 
	C520.375977,467.509308 526.816956,463.208954 532.934204,458.488983 
	C546.420166,448.083252 559.769836,437.500000 573.124329,426.924988 
	C585.442261,417.170776 597.644043,407.269501 609.987122,397.547394 
	C625.965881,384.961731 642.066040,372.530182 658.053345,359.955292 
	C670.271729,350.344910 682.383301,340.598907 694.579407,330.959930 
	C695.985840,329.848328 697.628906,329.035919 699.502075,328.043884 
	C699.880859,332.693329 699.919861,337.383575 699.542175,342.542816 
	C697.260681,343.997986 695.193298,344.729126 693.569397,346.018707 
	C688.901855,349.725311 684.516418,353.788086 679.835632,357.476837 
	C666.453369,368.022888 652.938965,378.401123 639.551697,388.940826 
	C618.621155,405.419189 597.760681,421.986511 576.854858,438.496277 
	C559.708191,452.037323 542.564697,465.582581 525.358215,479.047241 
	C521.745117,481.874573 517.862793,484.358063 514.044800,486.536926 
	C514.017273,481.382599 514.049561,476.691284 514.081787,472.000000 
z"/>
<path fill="#BAB28B" opacity="1.000000" stroke="none" 
	d="
M514.104553,487.000000 
	C517.862793,484.358063 521.745117,481.874573 525.358215,479.047241 
	C542.564697,465.582581 559.708191,452.037323 576.854858,438.496277 
	C597.760681,421.986511 618.621155,405.419189 639.551697,388.940826 
	C652.938965,378.401123 666.453369,368.022888 679.835632,357.476837 
	C684.516418,353.788086 688.901855,349.725311 693.569397,346.018707 
	C695.193298,344.729126 697.260681,343.997986 699.483459,343.005493 
	C699.880981,347.358765 699.920471,351.718353 699.540466,356.545227 
	C695.171753,359.629944 691.053345,362.026947 687.304871,364.905609 
	C675.505066,373.967346 663.828247,383.189667 652.134705,392.389069 
	C642.906494,399.649078 633.734314,406.980438 624.517639,414.255249 
	C616.335693,420.713318 608.112915,427.119751 599.932800,433.580200 
	C587.089783,443.723358 574.256897,453.879456 561.440125,464.055786 
	C553.148621,470.639099 545.006775,477.416901 536.587830,483.831879 
	C529.251465,489.422028 521.620911,494.626007 514.059937,499.540527 
	C514.034546,495.053619 514.069519,491.026794 514.104553,487.000000 
z"/>
<path fill="#C1B186" opacity="1.000000" stroke="none" 
	d="
M514.120300,500.000610 
	C521.620911,494.626007 529.251465,489.422028 536.587830,483.831879 
	C545.006775,477.416901 553.148621,470.639099 561.440125,464.055786 
	C574.256897,453.879456 587.089783,443.723358 599.932800,433.580200 
	C608.112915,427.119751 616.335693,420.713318 624.517639,414.255249 
	C633.734314,406.980438 642.906494,399.649078 652.134705,392.389069 
	C663.828247,383.189667 675.505066,373.967346 687.304871,364.905609 
	C691.053345,362.026947 695.171753,359.629944 699.481689,357.006531 
	C699.881287,360.365112 699.920105,363.729706 699.563843,367.591156 
	C697.510620,369.165588 695.752991,370.117767 694.210083,371.340851 
	C682.815186,380.373840 671.503296,389.511810 660.084656,398.514557 
	C651.128296,405.575989 642.001526,412.421265 633.047852,419.485962 
	C614.237854,434.327454 595.505310,449.267059 576.714661,464.133118 
	C565.307068,473.158173 553.808533,482.069336 542.474487,491.185333 
	C541.229797,492.186401 540.801697,494.202820 539.709961,495.965027 
	C531.196533,500.878937 522.968018,505.576111 514.120300,510.626740 
	C514.120300,506.282990 514.120300,503.141815 514.120300,500.000610 
z"/>
<path fill="#2DBEEC" opacity="1.000000" stroke="none" 
	d="
M276.127075,379.414429 
	C280.528961,375.131958 284.956451,370.963837 289.702423,367.196991 
	C304.905609,355.130371 320.226715,343.212250 336.162079,331.156921 
	C344.079803,335.288971 351.337738,339.500916 358.242004,343.856506 
	C350.529572,349.564484 343.121979,355.065582 335.822784,360.706909 
	C322.651154,370.886993 309.544373,381.150970 296.410492,391.379883 
	C289.706482,387.490753 283.002502,383.601593 276.127075,379.414429 
z"/>
<path fill="#C6B183" opacity="1.000000" stroke="none" 
	d="
M539.994873,495.748352 
	C540.801697,494.202820 541.229797,492.186401 542.474487,491.185333 
	C553.808533,482.069336 565.307068,473.158173 576.714661,464.133118 
	C595.505310,449.267059 614.237854,434.327454 633.047852,419.485962 
	C642.001526,412.421265 651.128296,405.575989 660.084656,398.514557 
	C671.503296,389.511810 682.815186,380.373840 694.210083,371.340851 
	C695.752991,370.117767 697.510620,369.165588 699.504761,368.046082 
	C699.880493,371.698853 699.920166,375.393524 699.567139,379.586914 
	C694.164490,383.846680 689.064514,387.494263 684.161377,391.389679 
	C668.521118,403.815460 652.993225,416.382721 637.345764,428.799408 
	C625.702881,438.038361 613.902283,447.078857 602.284180,456.348480 
	C600.860535,457.484344 600.132446,459.492035 599.066284,461.076538 
	C599.050476,461.057373 599.089783,461.057983 598.721069,461.044739 
	C597.581177,461.725769 596.810059,462.420013 595.860474,463.401978 
	C577.119629,474.375916 558.557251,485.062134 539.994873,495.748352 
z"/>
<path fill="#36BDE5" opacity="1.000000" stroke="none" 
	d="
M296.664795,391.630310 
	C309.544373,381.150970 322.651154,370.886993 335.822784,360.706909 
	C343.121979,355.065582 350.529572,349.564484 358.559082,343.944000 
	C364.834106,347.216278 370.438385,350.544739 376.042725,353.873230 
	C369.926910,359.116394 363.968689,364.558167 357.663025,369.562042 
	C343.847534,380.525299 329.855957,391.266632 315.554749,402.254028 
	C309.088531,398.899872 303.003815,395.390320 296.664795,391.630310 
z"/>
<path fill="#CDB17F" opacity="1.000000" stroke="none" 
	d="
M599.082031,461.095703 
	C600.132446,459.492035 600.860535,457.484344 602.284180,456.348480 
	C613.902283,447.078857 625.702881,438.038361 637.345764,428.799408 
	C652.993225,416.382721 668.521118,403.815460 684.161377,391.389679 
	C689.064514,387.494263 694.164490,383.846680 699.508667,380.044434 
	C699.884399,386.027039 699.925903,392.050903 699.905457,398.540100 
	C697.928101,399.845459 695.780396,400.371399 694.140625,401.584045 
	C689.118103,405.298187 684.259399,409.238007 679.428833,413.201996 
	C678.858154,413.670288 678.857971,414.833679 678.637573,416.125183 
	C654.139465,430.666901 629.608032,444.777222 605.033020,458.811371 
	C603.209229,459.852844 601.072998,460.347076 599.082031,461.095703 
z"/>
<path fill="#3DBCE1" opacity="1.000000" stroke="none" 
	d="
M562.989014,175.843750 
	C563.255493,174.738785 563.522034,173.633804 563.926392,172.210022 
	C574.261475,174.028839 584.650452,175.521393 594.604675,178.477600 
	C605.503052,181.714218 616.000000,186.302689 626.726318,190.917908 
	C626.509521,192.404099 626.238281,193.274399 625.592651,194.101227 
	C623.993347,193.562729 622.754822,193.098862 621.545715,192.567978 
	C602.786438,184.331635 583.176575,179.076996 562.989014,175.843750 
z"/>
<path fill="#A5B39A" opacity="1.000000" stroke="none" 
	d="
M699.902588,312.535339 
	C694.713440,316.357574 689.600281,319.739655 684.442322,323.052063 
	C683.251282,323.816925 681.907288,324.343414 680.322266,324.624847 
	C688.012329,313.346466 694.734741,301.853546 696.475952,287.966614 
	C697.811646,287.619904 698.826599,287.307251 699.841553,286.994629 
	C699.895386,289.304596 699.990906,291.614563 699.994873,293.924622 
	C700.005249,299.972961 699.975830,306.021393 699.902588,312.535339 
z"/>
<path fill="#59BACD" opacity="1.000000" stroke="none" 
	d="
M177.083618,550.430603 
	C178.130569,549.993469 179.107193,549.996460 180.515244,550.459045 
	C180.127365,570.547058 182.608612,589.846558 186.349609,608.986328 
	C184.940094,609.010620 183.914780,609.030701 182.889465,609.050781 
	C181.257324,600.105164 179.359131,591.197632 178.076614,582.202209 
	C177.036423,574.906250 176.574554,567.513428 176.184464,560.146179 
	C176.021973,557.077637 176.711273,553.963928 177.083618,550.430603 
z"/>
<path fill="#E0AE71" opacity="1.000000" stroke="none" 
	d="
M316.056702,787.735413 
	C315.361908,788.509399 314.667114,789.283386 313.588684,790.213501 
	C303.133240,783.744141 292.919342,777.321533 283.049438,770.407715 
	C278.109528,766.947327 273.797363,762.590759 269.331116,758.214172 
	C270.317444,757.186951 271.173889,756.585083 272.339203,756.110352 
	C274.139679,757.558594 275.525604,759.028076 277.139557,760.177368 
	C290.087616,769.397461 303.078735,778.557190 316.056702,787.735413 
z"/>
<path fill="#71B8BC" opacity="1.000000" stroke="none" 
	d="
M182.925964,609.458862 
	C183.914780,609.030701 184.940094,609.010620 186.472778,609.360229 
	C192.074066,625.130310 197.167984,640.530701 201.905884,655.965393 
	C200.666489,656.347900 199.783081,656.696106 198.899673,657.044250 
	C193.587265,641.318481 188.274857,625.592712 182.925964,609.458862 
z"/>
<path fill="#4DBBD5" opacity="1.000000" stroke="none" 
	d="
M625.967041,194.144699 
	C626.238281,193.274399 626.509521,192.404099 626.918335,191.215408 
	C632.693726,193.758026 638.552734,196.260071 643.915771,199.566711 
	C651.399109,204.180618 658.511841,209.395691 665.648804,214.787186 
	C665.014465,216.103119 664.514465,216.985352 663.706299,217.745636 
	C652.199646,207.759140 638.865112,201.299820 625.967041,194.144699 
z"/>
<path fill="#CDB17F" opacity="1.000000" stroke="none" 
	d="
M272.030334,755.983154 
	C271.173889,756.585083 270.317444,757.186951 269.170105,757.915344 
	C259.319794,747.579529 249.760345,737.117126 240.348572,726.206116 
	C241.000092,724.823853 241.503937,723.890198 242.294983,723.129395 
	C252.398224,734.195862 262.214264,745.089539 272.030334,755.983154 
z"/>
<path fill="#97B5A3" opacity="1.000000" stroke="none" 
	d="
M198.955521,657.411011 
	C199.783081,656.696106 200.666489,656.347900 202.147583,656.196533 
	C209.069260,668.593140 215.393265,680.792969 221.411850,693.032959 
	C220.385071,693.744751 219.663712,694.416382 218.942337,695.087952 
	C215.606125,689.652283 211.983261,684.368164 209.007172,678.742004 
	C205.390396,671.904602 202.318817,664.778748 198.955521,657.411011 
z"/>
<path fill="#8EB5A9" opacity="1.000000" stroke="none" 
	d="
M699.898926,286.568634 
	C698.826599,287.307251 697.811646,287.619904 696.418701,287.501312 
	C697.001709,273.471466 694.393677,260.518829 689.150513,247.802185 
	C690.250305,247.005432 691.182190,246.479950 692.114136,245.954468 
	C698.055481,256.780426 700.519653,268.413452 700.168945,280.697296 
	C700.117126,282.512970 700.028076,284.327545 699.898926,286.568634 
z"/>
<path fill="#66B9C5" opacity="1.000000" stroke="none" 
	d="
M691.945618,245.645508 
	C691.182190,246.479950 690.250305,247.005432 688.887329,247.584045 
	C682.165710,236.189575 673.730347,226.502914 664.014404,217.867599 
	C664.514465,216.985352 665.014465,216.103119 665.807251,215.088455 
	C672.060120,220.959259 678.292114,226.722885 683.875000,233.058502 
	C687.056458,236.668854 689.178162,241.212936 691.945618,245.645508 
z"/>
<path fill="#B3B28F" opacity="1.000000" stroke="none" 
	d="
M218.985901,695.441833 
	C219.663712,694.416382 220.385071,693.744751 221.622620,693.319214 
	C228.761765,703.362366 235.384766,713.159485 242.007782,722.956604 
	C241.503937,723.890198 241.000092,724.823853 240.192047,725.900146 
	C234.222412,718.241272 228.506393,710.475708 222.925003,702.614563 
	C221.416885,700.490417 220.316818,698.076599 218.985901,695.441833 
z"/>
<path fill="#FFFFFF" opacity="1.000000" stroke="none" 
	d="
M663.706299,217.745667 
	C673.730347,226.502914 682.165710,236.189575 688.719482,247.855316 
	C694.393677,260.518829 697.001709,273.471466 696.098022,287.535339 
	C694.734741,301.853546 688.012329,313.346466 679.947998,324.618774 
	C669.957764,336.432556 657.771851,345.249695 645.483276,353.874359 
	C639.407227,358.138824 632.786194,361.626709 625.854370,365.774841 
	C620.842224,368.595886 616.352295,371.047913 611.939148,373.631195 
	C596.811035,382.486542 581.714294,391.395355 566.597229,400.269684 
	C550.189880,409.901459 533.798584,419.561310 517.334961,429.096069 
	C514.677185,430.635254 513.732422,432.600372 513.818481,435.553864 
	C514.007263,442.031525 513.985046,448.515320 514.048950,454.996613 
	C514.020386,460.354675 513.991699,465.712708 514.022400,471.535400 
	C514.049561,476.691284 514.017273,481.382599 514.044800,486.536926 
	C514.069519,491.026794 514.034546,495.053619 514.059937,499.540527 
	C514.120300,503.141815 514.120300,506.282990 514.120300,510.626740 
	C522.968018,505.576111 531.196533,500.878937 539.709961,495.965057 
	C558.557251,485.062134 577.119629,474.375916 596.204346,463.362885 
	C597.514404,462.376678 598.302063,461.717346 599.089783,461.057983 
	C599.089783,461.057983 599.050476,461.057373 599.066284,461.076538 
	C601.072998,460.347076 603.209229,459.852844 605.033020,458.811371 
	C629.608032,444.777222 654.139465,430.666901 678.899414,416.307373 
	C682.784851,413.870636 686.385925,411.573792 690.160156,409.609741 
	C691.325500,409.003357 692.962769,409.303864 694.383911,409.189117 
	C693.712097,410.590515 693.422302,412.643555 692.310913,413.295105 
	C677.002930,422.269379 661.581909,431.050842 646.188477,439.879333 
	C643.315308,441.527161 640.441589,443.173950 636.964478,445.123962 
	C596.145020,468.436462 555.929199,491.446198 514.649475,515.064636 
	C522.310852,519.610046 528.844849,523.486572 535.378784,527.363098 
	C540.980164,530.959351 546.581482,534.555542 552.518066,538.276245 
	C559.983582,542.945801 567.114014,547.490784 574.583557,552.132629 
	C578.220154,554.444824 581.429810,556.814209 584.872559,558.774292 
	C585.809082,559.307434 587.687683,559.019226 588.729736,558.413086 
	C626.199402,536.619507 663.620117,514.741699 701.050842,492.881134 
	C705.480286,490.294250 709.927917,487.738647 714.684814,485.011597 
	C724.126038,480.672821 732.972107,475.655121 742.440674,472.512939 
	C755.327515,468.236298 768.746338,464.931122 782.491638,467.863739 
	C805.926697,472.863831 822.903381,486.309021 832.926025,508.196411 
	C843.065491,530.338745 844.407837,553.691772 842.200562,577.508362 
	C837.619568,626.937317 818.737427,670.958923 791.149414,711.585754 
	C771.981201,739.813416 749.088806,764.624329 720.052124,782.885986 
	C693.178162,799.787476 665.662537,815.672424 638.352234,831.874817 
	C622.182617,841.467712 605.872314,850.823792 589.597717,860.238647 
	C587.960754,861.185547 586.132324,861.801514 584.023193,862.734497 
	C584.023193,773.964783 584.023193,685.948364 584.029907,597.001831 
	C584.065247,586.297607 584.197266,576.521790 584.024414,566.751282 
	C583.994263,565.048035 583.155701,562.658691 581.875793,561.798340 
	C576.125977,557.933472 570.082214,554.506042 563.935364,550.651428 
	C556.903687,546.208191 550.081177,542.034302 543.059631,537.578369 
	C533.535828,531.441650 524.210999,525.587097 514.027954,519.193726 
	C514.027954,533.266479 514.027954,546.135803 513.970093,559.470581 
	C513.945007,569.625610 513.977844,579.315247 513.951477,589.470215 
	C513.912537,609.289062 513.932739,628.642517 513.953003,647.995972 
	C513.953003,673.878174 513.953003,699.760315 513.953003,725.406982 
	C509.271362,726.899658 509.195953,724.516724 509.202209,721.700378 
	C509.258087,696.440308 509.252167,671.180115 509.265228,644.988403 
	C509.243073,631.699829 509.220123,619.342773 509.247070,606.520630 
	C509.273193,597.361206 509.249420,588.666931 509.271301,579.508728 
	C509.293396,571.359741 509.269867,563.674683 509.298035,555.523804 
	C509.340546,547.362610 509.331390,539.667236 509.452881,531.591797 
	C509.583557,527.200500 509.583557,523.189209 509.583557,518.279419 
	C501.476044,523.057861 494.211060,527.291138 486.993378,531.603638 
	C470.639191,541.375122 454.308258,551.185608 437.679688,561.053894 
	C436.881012,561.692383 436.370514,562.257202 435.844299,562.808838 
	C435.828552,562.795593 435.790253,562.780640 435.434387,562.779297 
	C426.423523,567.742737 417.803772,572.770996 409.076477,577.605164 
	C407.733612,578.349060 405.896240,578.200195 404.287567,578.464233 
	C405.304901,577.053955 406.015076,575.130859 407.385498,574.310059 
	C428.952850,561.392090 450.606873,548.618896 472.237335,535.806335 
	C484.092804,528.783813 495.941437,521.749695 508.731140,514.164490 
	C501.373718,510.077698 494.752167,506.399658 487.930847,502.456146 
	C483.907288,500.077606 480.083527,497.964539 476.030457,495.587982 
	C470.199158,492.246643 464.597107,489.168793 458.688660,485.929016 
	C453.965363,483.084106 449.548492,480.401154 444.909180,477.465759 
	C442.140442,475.800262 439.594177,474.387268 436.816345,472.712189 
	C435.579712,471.937256 434.556702,471.456512 433.572540,470.906250 
	C427.562378,467.545959 421.561035,464.169830 415.328094,460.508911 
	C409.093170,456.733490 403.086914,453.248230 396.862976,449.503967 
	C392.159058,446.714050 387.672760,444.183197 382.967590,441.398804 
	C376.175293,437.409851 369.601898,433.674469 362.813171,429.679321 
	C357.442108,426.504791 352.286407,423.589996 346.913940,420.408264 
	C342.524414,417.743408 338.351624,415.345551 334.178833,412.947693 
	C335.223602,412.067810 336.268372,411.187958 337.912109,410.507538 
	C343.998322,413.809509 349.485535,416.912048 355.187469,420.277405 
	C362.254456,424.411194 369.106689,428.282166 376.156189,432.422028 
	C380.818726,435.174133 385.283966,437.657379 389.951843,440.422882 
	C395.080597,443.481323 400.006744,446.257477 405.148193,449.298431 
	C410.910187,452.705292 416.456787,455.847321 422.223816,459.247498 
	C428.253479,462.770630 434.062744,466.035614 440.072021,469.564453 
	C445.169098,472.583649 450.066193,475.339020 455.171875,478.358643 
	C459.226166,480.764282 463.071838,482.905731 467.131958,485.310303 
	C471.874725,488.102814 476.403015,490.632172 481.140686,493.420868 
	C490.684052,499.138763 500.018097,504.597290 509.746216,510.286316 
	C509.746216,496.864899 509.746216,484.430511 509.816956,471.533325 
	C509.801422,465.044312 509.715149,459.018097 509.717865,452.533478 
	C509.688446,446.707794 509.570007,441.340546 509.546478,435.612854 
	C508.975891,433.321136 508.886658,430.604095 507.532898,429.611206 
	C503.982269,427.007019 499.880280,425.154602 495.790192,422.735107 
	C489.756073,419.295166 483.929718,416.122803 477.909760,412.660858 
	C472.140259,409.301239 466.564331,406.231232 460.679962,402.992767 
	C455.580383,399.883698 450.789276,396.943115 445.788269,393.734009 
	C440.734955,390.945251 435.891479,388.425018 430.869019,385.616577 
	C424.452545,381.650635 418.215027,377.972900 411.671631,374.113953 
	C405.575897,370.622223 399.786041,367.311768 393.996155,364.001312 
	C388.241791,360.682526 382.487457,357.363739 376.387878,353.959076 
	C370.438385,350.544739 364.834106,347.216278 358.912720,343.800354 
	C351.337738,339.500916 344.079803,335.288971 336.475403,331.014893 
	C326.662292,325.306671 317.239166,319.586029 307.719788,314.030304 
	C288.703369,302.931854 269.633606,291.924713 250.590317,280.872253 
	C250.164597,280.625183 249.791946,280.286682 248.992798,279.691711 
	C261.618500,272.265869 273.846771,265.081909 286.067200,257.884644 
	C315.725342,240.417374 345.286774,222.783295 375.064148,205.521744 
	C400.729523,190.643875 428.366272,181.005737 457.597565,175.980133 
	C482.457184,171.706116 507.499969,170.324219 532.651306,172.099838 
	C542.536438,172.797729 552.352478,174.473938 562.594482,175.774185 
	C583.176575,179.076996 602.786438,184.331635 621.545715,192.567978 
	C622.754822,193.098862 623.993347,193.562729 625.592651,194.101227 
	C638.865112,201.299820 652.199646,207.759140 663.706299,217.745667 
M601.667786,271.250885 
	C600.722717,264.247955 597.328430,258.598206 591.802063,253.338821 
	C585.886353,248.858032 579.970642,244.377243 573.680359,239.307098 
	C565.060852,236.062134 556.441406,232.817169 547.071899,229.178009 
	C533.710754,227.905289 520.349609,226.632584 506.130127,225.230042 
	C499.346710,225.823608 492.529694,226.165207 485.786987,227.064041 
	C472.379730,228.851318 459.415985,232.696945 447.636780,239.181381 
	C430.122681,248.822891 413.154388,259.456024 395.956421,269.671539 
	C391.223572,272.482849 386.500031,275.309875 380.393066,278.952209 
	C393.381714,286.116028 405.164886,292.614960 417.251526,299.722107 
	C425.501495,304.479858 433.751465,309.237610 442.408386,314.544678 
	C449.939362,318.696228 457.470306,322.847778 465.400757,327.544128 
	C471.935059,331.362183 478.469330,335.180267 485.411926,339.545013 
	C491.260071,342.734833 497.108215,345.924622 503.271576,349.719452 
	C508.306915,353.891052 513.144043,354.138184 518.954285,350.499023 
	C531.860535,342.415436 545.131348,334.912537 558.279480,327.217224 
	C570.279846,320.193665 582.567871,313.666046 592.281677,303.304291 
	C600.692017,294.332947 604.541809,284.229248 601.667786,271.250885 
M650.969910,704.500000 
	C650.680603,714.305847 650.256592,724.110352 650.161011,733.918091 
	C650.115784,738.555725 650.699280,743.199402 651.065491,748.890137 
	C667.570374,739.306641 682.724792,730.783813 697.589844,721.783142 
	C708.325317,715.282898 719.663574,709.273132 729.007263,701.077148 
	C753.743835,679.379150 770.178040,652.308350 776.594299,619.683655 
	C779.479370,605.014221 779.941284,590.236755 774.912781,575.978760 
	C771.370483,565.934753 764.803101,557.372742 753.940979,555.143127 
	C739.423584,552.163269 725.542786,554.609497 712.486572,562.731140 
	C693.510620,574.535095 674.022034,585.522827 654.609314,596.608826 
	C651.642212,598.303223 650.835510,600.120728 650.930054,603.257446 
	C651.113953,609.356262 650.894836,615.466309 650.898010,621.571716 
	C650.912476,648.881165 650.946411,676.190552 650.969910,704.500000 
z"/>
<path fill="#FFFFFF" opacity="1.000000" stroke="none" 
	d="
M242.294983,723.129395 
	C235.384766,713.159485 228.761765,703.362366 221.928009,693.279053 
	C215.393265,680.792969 209.069260,668.593140 202.503586,656.162231 
	C197.167984,640.530701 192.074066,625.130310 186.856995,609.356079 
	C182.608612,589.846558 180.127365,570.547058 180.881699,550.453491 
	C182.592453,532.419006 185.569611,515.225220 194.915298,499.737244 
	C204.063538,484.576569 216.786652,473.656708 234.023697,469.793213 
	C243.686798,467.627319 254.039062,468.536163 264.841003,468.275452 
	C271.721985,470.029205 277.842773,471.567108 284.199127,473.367432 
	C289.906738,475.868805 295.378754,478.107819 301.093201,480.576904 
	C307.791779,484.593384 314.248016,488.379822 320.903381,492.445007 
	C325.380524,495.859375 329.658478,498.994995 334.092834,502.423767 
	C338.774811,506.508514 343.300385,510.300110 347.984680,514.389038 
	C353.412842,520.156799 358.682312,525.627197 364.090942,531.393555 
	C365.838074,533.455688 367.446136,535.221863 369.177551,537.298035 
	C372.807678,541.855713 376.314484,546.103394 379.911011,550.673950 
	C382.913147,555.033020 385.825531,559.069275 388.849487,563.438416 
	C391.610992,567.860962 394.260956,571.950623 396.975708,576.390015 
	C399.405853,580.823792 401.771149,584.907959 404.219238,589.328613 
	C407.177643,595.145630 410.053284,600.626160 412.962708,606.471191 
	C415.332306,612.222778 417.668152,617.609924 420.030884,623.375610 
	C422.253357,629.862976 424.448975,635.971802 426.717346,642.478760 
	C428.637909,649.922302 430.485687,656.967712 432.378174,664.392944 
	C434.027771,676.185425 435.632599,687.598083 437.237427,699.010742 
	C437.472076,714.658264 437.204102,730.292969 432.919769,745.483582 
	C425.866943,770.489868 412.545319,790.386902 386.381256,798.361023 
	C368.036285,803.952209 349.888489,801.179504 332.238037,794.475952 
	C327.008148,792.489624 321.872864,790.254150 316.375427,787.934143 
	C303.078735,778.557190 290.087616,769.397461 277.139557,760.177368 
	C275.525604,759.028076 274.139679,757.558594 272.339203,756.110352 
	C262.214264,745.089539 252.398224,734.195862 242.294983,723.129395 
M296.548798,554.166199 
	C293.642944,553.557800 290.762115,552.758301 287.826935,552.373535 
	C273.944031,550.554199 261.968994,553.233459 253.509171,565.838562 
	C247.501678,574.789734 245.960861,584.679565 245.182190,595.857239 
	C245.851654,602.903442 246.521118,609.949585 247.161804,617.780640 
	C249.046631,624.300842 250.931473,630.821045 252.914597,638.067871 
	C255.571930,643.723083 258.229248,649.378235 261.052124,655.735657 
	C264.368378,661.156311 267.684662,666.576904 271.230438,672.641968 
	C275.471466,677.794922 279.712524,682.947876 284.252777,688.687622 
	C289.170319,693.123596 294.087830,697.559570 299.410065,702.527161 
	C306.276733,706.301147 313.143402,710.075195 320.694092,714.189392 
	C324.207367,715.022644 327.679535,716.180542 331.241211,716.631348 
	C344.645660,718.328003 356.219849,715.110474 364.570709,703.638489 
	C371.473175,694.156250 372.316925,683.140015 372.941132,671.114380 
	C371.947357,663.077942 370.953583,655.041504 370.004181,646.208252 
	C367.887878,639.475464 365.771576,632.742615 363.480835,625.355591 
	C360.354187,619.554565 357.227539,613.753479 353.943024,607.258118 
	C350.310211,601.804504 346.677399,596.350830 342.741150,590.305786 
	C338.509399,585.503174 334.277618,580.700623 329.678619,575.343384 
	C324.785767,571.562256 319.892883,567.781189 314.591858,563.467590 
	C308.770996,560.515015 302.950134,557.562378 296.548798,554.166199 
z"/>
<path fill="#EAAE6A" opacity="1.000000" stroke="none" 
	d="
M514.311890,647.963623 
	C513.932739,628.642517 513.912537,609.289062 514.300476,589.433228 
	C517.938660,586.655029 521.267151,584.505615 524.381836,582.081482 
	C537.670471,571.738831 550.895935,561.315002 564.144470,550.920837 
	C570.082214,554.506042 576.125977,557.933472 581.875793,561.798340 
	C583.155701,562.658691 583.994263,565.048035 584.024414,566.751282 
	C584.197266,576.521790 584.065247,586.297607 583.970398,596.536499 
	C579.600891,599.504028 574.991638,601.602356 571.051819,604.584961 
	C559.224548,613.538757 547.643250,622.818359 535.997314,632.010498 
	C530.434814,636.400879 524.980835,640.929321 519.392822,645.286438 
	C517.986450,646.383057 516.253601,647.060974 514.311890,647.963623 
z"/>
<path fill="#EAAE6A" opacity="1.000000" stroke="none" 
	d="
M437.587891,699.001343 
	C435.632599,687.598083 434.027771,676.185425 432.719604,664.381775 
	C434.613098,663.170776 436.397095,662.587463 437.778595,661.495178 
	C457.610596,645.815430 477.335144,629.999268 497.227112,614.396362 
	C500.896851,611.517883 505.191162,609.435547 509.197205,606.985718 
	C509.220123,619.342773 509.243073,631.699829 509.210327,644.521240 
	C504.163910,648.434509 499.002625,651.663391 494.215973,655.375366 
	C482.074188,664.791321 470.094910,674.416931 458.061523,683.972412 
	C452.109406,688.698792 446.195801,693.473999 440.220428,698.170532 
	C439.617218,698.644775 438.706421,698.727539 437.587891,699.001343 
z"/>
<path fill="#CDB17F" opacity="1.000000" stroke="none" 
	d="
M535.739685,527.189331 
	C528.844849,523.486572 522.310852,519.610046 514.649475,515.064636 
	C555.929199,491.446198 596.145020,468.436462 636.685608,445.345123 
	C636.296082,446.671722 635.940186,448.535889 634.814575,449.420746 
	C612.576721,466.901489 590.222412,484.234009 567.952393,501.673950 
	C557.270691,510.038910 546.713928,518.563416 535.739685,527.189331 
z"/>
<path fill="#45BBDB" opacity="1.000000" stroke="none" 
	d="
M354.972778,420.014587 
	C349.485535,416.912048 343.998322,413.809509 338.257629,410.414490 
	C341.628387,406.768250 345.084167,403.207489 348.906616,400.097412 
	C363.672424,388.083527 378.555237,376.213379 393.695312,364.145508 
	C399.786041,367.311768 405.575897,370.622223 411.626282,374.437988 
	C408.672424,377.718506 405.565613,380.631134 402.225403,383.245575 
	C386.509613,395.546753 370.729767,407.766083 354.972778,420.014587 
z"/>
<path fill="#45BBDB" opacity="1.000000" stroke="none" 
	d="
M283.963562,473.105042 
	C277.842773,471.567108 271.721985,470.029205 265.297974,468.257965 
	C266.214630,466.315887 267.119446,464.204803 268.705078,462.963074 
	C279.657959,454.385590 290.843353,446.104340 301.774597,437.499939 
	C311.277710,430.019623 320.527405,422.217834 329.943268,414.625275 
	C330.912872,413.843414 332.252167,413.520081 333.799377,412.965851 
	C338.351624,415.345551 342.524414,417.743408 346.852600,420.780457 
	C346.720642,422.005798 346.585510,422.783539 346.123840,423.150360 
	C332.664703,433.844025 319.130432,444.443420 305.703461,455.177094 
	C298.367645,461.041504 291.204559,467.122009 283.963562,473.105042 
z"/>
<path fill="#9EB49E" opacity="1.000000" stroke="none" 
	d="
M514.394531,454.959534 
	C513.985046,448.515320 514.007263,442.031525 513.818481,435.553864 
	C513.732422,432.600372 514.677185,430.635254 517.334961,429.096069 
	C533.798584,419.561310 550.189880,409.901459 566.597229,400.269684 
	C581.714294,391.395355 596.811035,382.486542 611.939148,373.631195 
	C616.352295,371.047913 620.842224,368.595886 625.648804,366.043823 
	C621.714844,369.978668 617.662292,374.245850 613.104309,377.878937 
	C590.091431,396.222229 566.979065,414.441284 543.833313,432.616974 
	C534.223083,440.163574 524.442993,447.493805 514.394531,454.959534 
z"/>
<path fill="#CDB17F" opacity="1.000000" stroke="none" 
	d="
M598.721069,461.044739 
	C598.302063,461.717346 597.514404,462.376678 596.382812,463.075134 
	C596.810059,462.420013 597.581177,461.725769 598.721069,461.044739 
z"/>
<path fill="#F5AD63" opacity="1.000000" stroke="none" 
	d="
M650.971558,704.000000 
	C650.946411,676.190552 650.912476,648.881165 650.898010,621.571716 
	C650.894836,615.466309 651.113953,609.356262 650.930054,603.257446 
	C650.835510,600.120728 651.642212,598.303223 654.609314,596.608826 
	C674.022034,585.522827 693.510620,574.535095 712.486572,562.731140 
	C725.542786,554.609497 739.423584,552.163269 753.940979,555.143127 
	C764.803101,557.372742 771.370483,565.934753 774.912781,575.978760 
	C779.941284,590.236755 779.479370,605.014221 776.594299,619.683655 
	C770.178040,652.308350 753.743835,679.379150 729.007263,701.077148 
	C719.663574,709.273132 708.325317,715.282898 697.589844,721.783142 
	C682.724792,730.783813 667.570374,739.306641 651.065491,748.890137 
	C650.699280,743.199402 650.115784,738.555725 650.161011,733.918091 
	C650.256592,724.110352 650.680603,714.305847 650.971558,704.000000 
z"/>
<path fill="#36BDE5" opacity="1.000000" stroke="none" 
	d="
M506.988525,225.359894 
	C520.349609,226.632584 533.710754,227.905289 547.064819,229.542374 
	C536.794373,238.021713 526.517822,246.120010 516.270752,254.255447 
	C498.501282,268.363068 480.718719,282.454407 463.006744,296.633911 
	C455.916260,302.310242 448.998047,308.201782 442.001434,313.995361 
	C433.751465,309.237610 425.501495,304.479858 417.246765,299.104919 
	C422.845734,293.846313 428.339752,289.064392 434.072662,284.588470 
	C456.118622,267.376312 478.283295,250.315872 500.279419,233.040634 
	C502.906250,230.977585 504.770691,227.943756 506.988525,225.359894 
z"/>
<path fill="#42BCDD" opacity="1.000000" stroke="none" 
	d="
M442.204895,314.270020 
	C448.998047,308.201782 455.916260,302.310242 463.006744,296.633911 
	C480.718719,282.454407 498.501282,268.363068 516.270752,254.255447 
	C526.517822,246.120010 536.794373,238.021713 547.439819,229.739471 
	C556.441406,232.817169 565.060852,236.062134 573.719971,239.912415 
	C572.613281,241.720047 571.591736,243.079987 570.301758,244.100616 
	C554.601807,256.522552 538.865601,268.898773 523.132324,281.278534 
	C503.758514,296.522888 484.378540,311.759430 465.001221,326.999329 
	C457.470306,322.847778 449.939362,318.696228 442.204895,314.270020 
z"/>
<path fill="#2DBEEC" opacity="1.000000" stroke="none" 
	d="
M506.559326,225.294968 
	C504.770691,227.943756 502.906250,230.977585 500.279419,233.040634 
	C478.283295,250.315872 456.118622,267.376312 434.072662,284.588470 
	C428.339752,289.064392 422.845734,293.846313 417.095032,298.800781 
	C405.164886,292.614960 393.381714,286.116028 380.393066,278.952209 
	C386.500031,275.309875 391.223572,272.482849 395.956421,269.671539 
	C413.154388,259.456024 430.122681,248.822891 447.636780,239.181381 
	C459.415985,232.696945 472.379730,228.851318 485.786987,227.064041 
	C492.529694,226.165207 499.346710,225.823608 506.559326,225.294968 
z"/>
<path fill="#4DBBD5" opacity="1.000000" stroke="none" 
	d="
M465.200989,327.271729 
	C484.378540,311.759430 503.758514,296.522888 523.132324,281.278534 
	C538.865601,268.898773 554.601807,256.522552 570.301758,244.100616 
	C571.591736,243.079987 572.613281,241.720047 573.907227,240.207092 
	C579.970642,244.377243 585.886353,248.858032 591.645142,253.790619 
	C586.882812,258.033997 582.364014,261.936859 577.656311,265.596771 
	C561.975159,277.787811 546.108276,289.742676 530.536804,302.071228 
	C515.216858,314.200623 500.170227,326.675232 485.003632,338.998352 
	C478.469330,335.180267 471.935059,331.362183 465.200989,327.271729 
z"/>
<path fill="#59BACD" opacity="1.000000" stroke="none" 
	d="
M485.207764,339.271667 
	C500.170227,326.675232 515.216858,314.200623 530.536804,302.071228 
	C546.108276,289.742676 561.975159,277.787811 577.656311,265.596771 
	C582.364014,261.936859 586.882812,258.033997 591.799927,254.098923 
	C597.328430,258.598206 600.722717,264.247955 601.412476,271.666382 
	C592.769470,278.225555 584.211060,284.151062 576.028748,290.557007 
	C557.283264,305.232971 538.701050,320.117859 520.097107,334.973785 
	C514.309875,339.595123 508.665924,344.395874 502.956360,349.114441 
	C497.108215,345.924622 491.260071,342.734833 485.207764,339.271667 
z"/>
<path fill="#CDB17F" opacity="1.000000" stroke="none" 
	d="
M420.003998,622.997009 
	C417.668152,617.609924 415.332306,612.222778 413.154236,606.188049 
	C416.985199,602.731018 420.701935,599.976501 424.324707,597.103394 
	C448.903137,577.611145 473.417999,558.038269 498.077301,538.648987 
	C501.475006,535.977356 505.557037,534.176025 509.322266,531.971802 
	C509.331390,539.667236 509.340546,547.362610 508.906372,555.529053 
	C507.057190,556.749695 505.499756,557.307678 504.269562,558.279724 
	C495.204956,565.442383 486.240997,572.732239 477.177643,579.896484 
	C463.843750,590.436340 450.535339,601.011658 437.047516,611.352051 
	C431.595123,615.532104 425.698486,619.132751 420.003998,622.997009 
z"/>
<path fill="#E0AE71" opacity="1.000000" stroke="none" 
	d="
M509.247070,606.520630 
	C505.191162,609.435547 500.896851,611.517883 497.227112,614.396362 
	C477.335144,629.999268 457.610596,645.815430 437.778595,661.495178 
	C436.397095,662.587463 434.613098,663.170776 432.674866,664.001953 
	C430.485687,656.967712 428.637909,649.922302 427.099640,642.433594 
	C433.436340,637.419250 439.518036,632.917969 445.480347,628.263733 
	C462.128510,615.268005 478.672455,602.138000 495.382599,589.222839 
	C499.763245,585.837097 504.598969,583.040100 509.225708,579.972656 
	C509.249420,588.666931 509.273193,597.361206 509.247070,606.520630 
z"/>
<path fill="#80B7B3" opacity="1.000000" stroke="none" 
	d="
M363.951813,531.097656 
	C358.682312,525.627197 353.412842,520.156799 348.302368,514.239624 
	C353.474548,509.771545 358.467590,505.724731 363.505005,501.733978 
	C373.452087,493.853668 383.414307,485.992432 393.388367,478.146301 
	C400.762970,472.345001 408.166260,466.580139 415.556763,460.799011 
	C421.561035,464.169830 427.562378,467.545959 433.572540,470.906250 
	C434.556702,471.456512 435.579712,471.937256 436.510620,472.856873 
	C434.485626,475.065948 432.645416,477.008453 430.566925,478.649139 
	C408.383606,496.159485 386.162506,513.621948 363.951813,531.097656 
z"/>
<path fill="#D5AF78" opacity="1.000000" stroke="none" 
	d="
M509.271301,579.508728 
	C504.598969,583.040100 499.763245,585.837097 495.382599,589.222839 
	C478.672455,602.138000 462.128510,615.268005 445.480347,628.263733 
	C439.518036,632.917969 433.436340,637.419250 427.026855,642.035522 
	C424.448975,635.971802 422.253357,629.862976 420.030884,623.375610 
	C425.698486,619.132751 431.595123,615.532104 437.047516,611.352051 
	C450.535339,601.011658 463.843750,590.436340 477.177643,579.896484 
	C486.240997,572.732239 495.204956,565.442383 504.269562,558.279724 
	C505.499756,557.307678 507.057190,556.749695 508.854706,555.994812 
	C509.269867,563.674683 509.293396,571.359741 509.271301,579.508728 
z"/>
<path fill="#C8B487" opacity="1.000000" stroke="none" 
	d="
M509.452911,531.591797 
	C505.557037,534.176025 501.475006,535.977356 498.077301,538.648987 
	C473.417999,558.038269 448.903137,577.611145 424.324707,597.103394 
	C420.701935,599.976501 416.985199,602.731018 413.120483,605.823547 
	C410.053284,600.626160 407.177643,595.145630 404.557678,589.288879 
	C414.160736,581.823730 423.562103,574.803711 432.797668,567.572021 
	C434.191315,566.480774 434.812012,564.402405 435.790253,562.780640 
	C435.790253,562.780640 435.828552,562.795593 436.184875,562.864380 
	C437.016785,562.282227 437.492340,561.631226 437.967896,560.980225 
	C454.308258,551.185608 470.639191,541.375122 486.993378,531.603638 
	C494.211060,527.291138 501.476044,523.057861 509.583557,518.279419 
	C509.583557,523.189209 509.583557,527.200500 509.452911,531.591797 
z"/>
<path fill="#66B9C5" opacity="1.000000" stroke="none" 
	d="
M503.113953,349.416931 
	C508.665924,344.395874 514.309875,339.595123 520.097107,334.973785 
	C538.701050,320.117859 557.283264,305.232971 576.028748,290.557007 
	C584.211060,284.151062 592.769470,278.225555 601.497375,272.037537 
	C604.541809,284.229248 600.692017,294.332947 592.281677,303.304291 
	C582.567871,313.666046 570.279846,320.193665 558.279480,327.217224 
	C545.131348,334.912537 531.860535,342.415436 518.954285,350.499023 
	C513.144043,354.138184 508.306915,353.891052 503.113953,349.416931 
z"/>
<path fill="#A5B39A" opacity="1.000000" stroke="none" 
	d="
M388.737915,563.105530 
	C385.825531,559.069275 382.913147,555.033020 380.068115,550.336304 
	C390.175110,541.593689 400.137604,533.413269 410.272339,525.452087 
	C426.001801,513.096069 441.857605,500.900818 457.615051,488.580109 
	C458.303131,488.042084 458.545197,486.933655 458.995056,486.090942 
	C464.597107,489.168793 470.199158,492.246643 475.703400,495.745941 
	C469.698456,500.652771 463.721008,505.049133 457.901001,509.644867 
	C449.744537,516.085571 441.729736,522.705383 433.609436,529.192383 
	C423.422699,537.330200 413.271149,545.515991 402.940735,553.468384 
	C398.415314,556.952026 393.484589,559.909241 388.737915,563.105530 
z"/>
<path fill="#59BACD" opacity="1.000000" stroke="none" 
	d="
M320.704254,492.166260 
	C314.248016,488.379822 307.791779,484.593384 301.239502,480.239166 
	C313.174622,470.075531 325.228485,460.507935 337.229340,450.874298 
	C345.865723,443.941528 354.431335,436.920654 363.028503,429.939087 
	C369.601898,433.674469 376.175293,437.409851 382.812500,441.731934 
	C380.702850,444.334137 378.655243,446.510101 376.331055,448.333588 
	C370.614258,452.818665 364.689331,457.039520 358.993835,461.550537 
	C346.183716,471.696503 333.461975,481.954102 320.704254,492.166260 
z"/>
<path fill="#BAB28B" opacity="1.000000" stroke="none" 
	d="
M435.434387,562.779297 
	C434.812012,564.402405 434.191315,566.480774 432.797668,567.572021 
	C423.562103,574.803711 414.160736,581.823730 404.474915,588.952393 
	C401.771149,584.907959 399.405853,580.823792 397.287018,576.243530 
	C401.021362,572.966736 404.489044,570.160339 408.001282,567.410889 
	C415.677094,561.402039 423.396545,555.448914 431.060089,549.424561 
	C444.310760,539.008179 457.617340,528.659973 470.728271,518.070068 
	C476.739624,513.214600 482.342560,507.853485 488.130676,502.721680 
	C494.752167,506.399658 501.373718,510.077698 508.731140,514.164490 
	C495.941437,521.749695 484.092804,528.783813 472.237335,535.806335 
	C450.606873,548.618896 428.952850,561.392090 407.385498,574.310059 
	C406.015076,575.130859 405.304901,577.053955 404.287567,578.464233 
	C405.896240,578.200195 407.733612,578.349060 409.076477,577.605164 
	C417.803772,572.770996 426.423523,567.742737 435.434387,562.779297 
z"/>
<path fill="#B3B28F" opacity="1.000000" stroke="none" 
	d="
M487.930847,502.456177 
	C482.342560,507.853485 476.739624,513.214600 470.728271,518.070068 
	C457.617340,528.659973 444.310760,539.008179 431.060089,549.424561 
	C423.396545,555.448914 415.677094,561.402039 408.001282,567.410889 
	C404.489044,570.160339 401.021362,572.966736 397.222229,575.893799 
	C394.260956,571.950623 391.610992,567.860962 388.849487,563.438416 
	C393.484589,559.909241 398.415314,556.952026 402.940735,553.468384 
	C413.271149,545.515991 423.422699,537.330200 433.609436,529.192383 
	C441.729736,522.705383 449.744537,516.085571 457.901001,509.644867 
	C463.721008,505.049133 469.698456,500.652771 475.932678,496.009460 
	C480.083527,497.964539 483.907288,500.077606 487.930847,502.456177 
z"/>
<path fill="#71B8BC" opacity="1.000000" stroke="none" 
	d="
M415.328094,460.508911 
	C408.166260,466.580139 400.762970,472.345001 393.388367,478.146301 
	C383.414307,485.992432 373.452087,493.853668 363.505005,501.733978 
	C358.467590,505.724731 353.474548,509.771545 348.143677,513.942383 
	C343.300385,510.300110 338.774811,506.508514 334.244415,502.110718 
	C354.097260,485.845520 373.977203,470.214478 393.766510,454.469574 
	C395.207367,453.323181 395.991302,451.351135 397.080658,449.762970 
	C403.086914,453.248230 409.093170,456.733490 415.328094,460.508911 
z"/>
<path fill="#97B5A3" opacity="1.000000" stroke="none" 
	d="
M458.688629,485.929016 
	C458.545197,486.933655 458.303131,488.042084 457.615051,488.580109 
	C441.857605,500.900818 426.001801,513.096069 410.272339,525.452087 
	C400.137604,533.413269 390.175110,541.593689 379.978333,550.013489 
	C376.314484,546.103394 372.807678,541.855713 369.526367,537.264954 
	C373.935028,534.013367 378.272797,531.301758 382.273926,528.161194 
	C397.465179,516.237305 412.573425,504.207031 427.657745,492.147736 
	C433.557159,487.431427 439.311310,482.533447 445.131653,477.718201 
	C449.548492,480.401154 453.965363,483.084106 458.688629,485.929016 
z"/>
<path fill="#4DBBD5" opacity="1.000000" stroke="none" 
	d="
M355.187500,420.277405 
	C370.729767,407.766083 386.509613,395.546753 402.225403,383.245575 
	C405.565613,380.631134 408.672424,377.718506 411.932159,374.619202 
	C418.215027,377.972900 424.452545,381.650635 430.721344,385.926483 
	C416.661438,397.929718 402.521332,409.275269 388.507965,420.775238 
	C384.148468,424.352814 380.132294,428.348755 375.958923,432.153137 
	C369.106689,428.282166 362.254456,424.411194 355.187500,420.277405 
z"/>
<path fill="#80B7B3" opacity="1.000000" stroke="none" 
	d="
M478.103333,412.950439 
	C483.929718,416.122803 489.756073,419.295166 495.643250,423.037781 
	C495.148956,424.223206 494.670013,424.935486 494.027527,425.439240 
	C479.223541,437.046783 464.356903,448.575104 449.616333,460.262451 
	C446.155273,463.006592 443.109070,466.273956 439.872009,469.300598 
	C434.062744,466.035614 428.253479,462.770630 422.260132,458.900940 
	C422.401123,457.734680 422.597137,457.010956 423.069763,456.634949 
	C441.398560,442.053650 459.752625,427.504120 478.103333,412.950439 
z"/>
<path fill="#4DBBD5" opacity="1.000000" stroke="none" 
	d="
M362.813171,429.679321 
	C354.431335,436.920654 345.865723,443.941528 337.229340,450.874298 
	C325.228485,460.507935 313.174622,470.075531 300.997131,480.009094 
	C295.378754,478.107819 289.906738,475.868805 284.199127,473.367432 
	C291.204559,467.122009 298.367645,461.041504 305.703461,455.177094 
	C319.130432,444.443420 332.664703,433.844025 346.123840,423.150360 
	C346.585510,422.783539 346.720642,422.005798 347.069336,421.047424 
	C352.286407,423.589996 357.442108,426.504791 362.813171,429.679321 
z"/>
<path fill="#71B8BC" opacity="1.000000" stroke="none" 
	d="
M477.909729,412.660828 
	C459.752625,427.504120 441.398560,442.053650 423.069763,456.634949 
	C422.597137,457.010956 422.401123,457.734680 422.039734,458.642792 
	C416.456787,455.847321 410.910187,452.705292 405.454834,449.150879 
	C418.341614,438.503510 431.198578,428.344025 443.905060,417.999756 
	C449.751465,413.240204 455.303070,408.118622 460.988403,403.161194 
	C466.564331,406.231232 472.140259,409.301239 477.909729,412.660828 
z"/>
<path fill="#66B9C5" opacity="1.000000" stroke="none" 
	d="
M396.862976,449.503967 
	C395.991302,451.351135 395.207367,453.323181 393.766510,454.469574 
	C373.977203,470.214478 354.097260,485.845520 334.088013,501.817566 
	C329.658478,498.994995 325.380524,495.859375 320.903381,492.445007 
	C333.461975,481.954102 346.183716,471.696503 358.993835,461.550537 
	C364.689331,457.039520 370.614258,452.818665 376.331055,448.333588 
	C378.655243,446.510101 380.702850,444.334137 383.031403,441.985474 
	C387.672760,444.183197 392.159058,446.714050 396.862976,449.503967 
z"/>
<path fill="#8EB5A9" opacity="1.000000" stroke="none" 
	d="
M440.072021,469.564453 
	C443.109070,466.273956 446.155273,463.006592 449.616333,460.262451 
	C464.356903,448.575104 479.223541,437.046783 494.027527,425.439240 
	C494.670013,424.935486 495.148956,424.223206 495.851013,423.305359 
	C499.880280,425.154602 503.982269,427.007019 507.532898,429.611206 
	C508.886658,430.604095 508.975891,433.321136 509.211426,435.623260 
	C507.347382,436.670013 505.728333,437.108521 504.508118,438.058990 
	C493.715912,446.465210 482.937775,454.891754 472.274597,463.460480 
	C466.386475,468.192047 460.726227,473.207123 454.963257,478.094391 
	C450.066193,475.339020 445.169098,472.583649 440.072021,469.564453 
z"/>
<path fill="#59BACD" opacity="1.000000" stroke="none" 
	d="
M376.156189,432.421997 
	C380.132294,428.348755 384.148468,424.352814 388.507965,420.775238 
	C402.521332,409.275269 416.661438,397.929718 430.900330,386.214691 
	C435.891479,388.425018 440.734955,390.945251 445.754395,394.079346 
	C444.452606,396.452087 443.227203,398.532806 441.457947,399.919952 
	C424.273773,413.393250 406.998505,426.750336 389.749237,440.140594 
	C385.283966,437.657379 380.818726,435.174133 376.156189,432.421997 
z"/>
<path fill="#66B9C5" opacity="1.000000" stroke="none" 
	d="
M389.951843,440.422882 
	C406.998505,426.750336 424.273773,413.393250 441.457947,399.919952 
	C443.227203,398.532806 444.452606,396.452087 445.964264,394.347839 
	C450.789276,396.943115 455.580383,399.883698 460.679932,402.992737 
	C455.303070,408.118622 449.751465,413.240204 443.905060,417.999756 
	C431.198578,428.344025 418.341614,438.503510 405.239502,448.886078 
	C400.006744,446.257477 395.080597,443.481323 389.951843,440.422882 
z"/>
<path fill="#E0AE71" opacity="1.000000" stroke="none" 
	d="
M563.935364,550.651428 
	C550.895935,561.315002 537.670471,571.738831 524.381836,582.081482 
	C521.267151,584.505615 517.938660,586.655029 514.359619,588.967896 
	C513.977844,579.315247 513.945007,569.625610 514.335999,559.464905 
	C516.757874,557.905823 518.944092,557.061218 520.721497,555.687561 
	C528.299744,549.830505 535.757141,543.816956 543.258606,537.860474 
	C550.081177,542.034302 556.903687,546.208191 563.935364,550.651428 
z"/>
<path fill="#8EB5A9" opacity="1.000000" stroke="none" 
	d="
M444.909180,477.465759 
	C439.311310,482.533447 433.557159,487.431427 427.657745,492.147736 
	C412.573425,504.207031 397.465179,516.237305 382.273926,528.161194 
	C378.272797,531.301758 373.935028,534.013367 369.403015,536.955017 
	C367.446136,535.221863 365.838074,533.455688 364.090942,531.393555 
	C386.162506,513.621948 408.383606,496.159485 430.566925,478.649139 
	C432.645416,477.008453 434.485626,475.065948 436.742188,473.118927 
	C439.594177,474.387268 442.140442,475.800262 444.909180,477.465759 
z"/>
<path fill="#9EB49E" opacity="1.000000" stroke="none" 
	d="
M455.171875,478.358643 
	C460.726227,473.207123 466.386475,468.192047 472.274597,463.460480 
	C482.937775,454.891754 493.715912,446.465210 504.508118,438.058990 
	C505.728333,437.108521 507.347382,436.670013 509.116516,435.983704 
	C509.570007,441.340546 509.688446,446.707794 509.381836,452.544281 
	C507.954681,453.524750 506.839661,453.890869 505.967377,454.569122 
	C492.931915,464.704254 479.928467,474.880585 466.917480,485.047180 
	C463.071838,482.905731 459.226166,480.764282 455.171875,478.358643 
z"/>
<path fill="#A5B39A" opacity="1.000000" stroke="none" 
	d="
M467.131958,485.310333 
	C479.928467,474.880585 492.931915,464.704254 505.967377,454.569122 
	C506.839661,453.890869 507.954681,453.524750 509.292847,453.002686 
	C509.715149,459.018097 509.801422,465.044312 509.453339,471.535492 
	C508.057312,472.180847 506.844330,472.048676 506.172150,472.589050 
	C497.713165,479.390106 489.332245,486.288269 480.931335,493.161560 
	C476.403015,490.632172 471.874725,488.102814 467.131958,485.310333 
z"/>
<path fill="#D5AF78" opacity="1.000000" stroke="none" 
	d="
M543.059631,537.578369 
	C535.757141,543.816956 528.299744,549.830505 520.721497,555.687561 
	C518.944092,557.061218 516.757874,557.905823 514.393860,558.999512 
	C514.027954,546.135803 514.027954,533.266479 514.027954,519.193726 
	C524.210999,525.587097 533.535828,531.441650 543.059631,537.578369 
z"/>
<path fill="#B3B28F" opacity="1.000000" stroke="none" 
	d="
M481.140686,493.420898 
	C489.332245,486.288269 497.713165,479.390106 506.172150,472.589050 
	C506.844330,472.048676 508.057312,472.180847 509.382568,471.998291 
	C509.746216,484.430511 509.746216,496.864899 509.746216,510.286316 
	C500.018097,504.597290 490.684052,499.138763 481.140686,493.420898 
z"/>
<path fill="#BAB28B" opacity="1.000000" stroke="none" 
	d="
M437.679688,561.053894 
	C437.492340,561.631226 437.016785,562.282227 436.200623,562.877686 
	C436.370514,562.257202 436.881012,561.692383 437.679688,561.053894 
z"/>
<path fill="#AAB396" opacity="1.000000" stroke="none" 
	d="
M343.044617,590.897217 
	C346.677399,596.350830 350.310211,601.804504 353.701752,607.742920 
	C347.636475,612.820129 341.818176,617.419739 335.987457,622.003540 
	C319.648010,634.848938 303.343933,647.739929 286.937164,660.498779 
	C281.769501,664.517395 276.320953,668.174866 271.000916,671.997559 
	C267.684662,666.576904 264.368378,661.156311 261.326202,655.344116 
	C266.640045,651.221375 271.779266,647.616272 276.701233,643.735596 
	C292.814331,631.031677 308.855133,618.235840 324.909271,605.457153 
	C330.974640,600.629272 337.000641,595.751953 343.044617,590.897217 
z"/>
<path fill="#BAB28B" opacity="1.000000" stroke="none" 
	d="
M271.115692,672.319824 
	C276.320953,668.174866 281.769501,664.517395 286.937164,660.498779 
	C303.343933,647.739929 319.648010,634.848938 335.987457,622.003540 
	C341.818176,617.419739 347.636475,612.820129 353.780670,608.090088 
	C357.227539,613.753479 360.354187,619.554565 363.245026,625.732422 
	C361.607574,626.967590 360.106445,627.698364 358.819305,628.703247 
	C341.890350,641.919556 324.952057,655.124512 308.102264,668.441345 
	C299.959625,674.876709 291.997437,681.540466 283.953552,688.100830 
	C279.712524,682.947876 275.471466,677.794922 271.115692,672.319824 
z"/>
<path fill="#9EB49E" opacity="1.000000" stroke="none" 
	d="
M342.892883,590.601440 
	C337.000641,595.751953 330.974640,600.629272 324.909271,605.457153 
	C308.855133,618.235840 292.814331,631.031677 276.701233,643.735596 
	C271.779266,647.616272 266.640045,651.221375 261.243439,654.993042 
	C258.229248,649.378235 255.571930,643.723083 253.051987,637.387817 
	C257.714111,633.378052 262.333221,630.168091 266.745697,626.695618 
	C279.331451,616.791321 291.862518,606.816895 304.357697,596.798401 
	C312.969818,589.893250 321.486542,582.869019 330.045868,575.898010 
	C334.277618,580.700623 338.509399,585.503174 342.892883,590.601440 
z"/>
<path fill="#C6B183" opacity="1.000000" stroke="none" 
	d="
M284.103180,688.394226 
	C291.997437,681.540466 299.959625,674.876709 308.102264,668.441345 
	C324.952057,655.124512 341.890350,641.919556 358.819305,628.703247 
	C360.106445,627.698364 361.607574,626.967590 363.332245,626.059570 
	C365.771576,632.742615 367.887878,639.475464 369.617981,646.610107 
	C365.445526,649.553101 361.486633,651.873474 357.903717,654.674683 
	C344.272461,665.332031 330.730438,676.104553 317.222015,686.917664 
	C311.069214,691.843018 305.072723,696.963562 299.005371,701.995605 
	C294.087830,697.559570 289.170319,693.123596 284.103180,688.394226 
z"/>
<path fill="#D5AF78" opacity="1.000000" stroke="none" 
	d="
M299.207703,702.261353 
	C305.072723,696.963562 311.069214,691.843018 317.222015,686.917664 
	C330.730438,676.104553 344.272461,665.332031 357.903717,654.674683 
	C361.486633,651.873474 365.445526,649.553101 369.595764,647.008484 
	C370.953583,655.041504 371.947357,663.077942 372.511536,671.566406 
	C370.587555,672.661804 368.869629,673.020447 367.632874,673.991699 
	C352.470856,685.899780 337.356812,697.869507 322.315704,709.929749 
	C321.210297,710.816101 320.763214,712.523499 320.010071,713.849182 
	C313.143402,710.075195 306.276733,706.301147 299.207703,702.261353 
z"/>
<path fill="#8EB5A9" opacity="1.000000" stroke="none" 
	d="
M329.862244,575.620728 
	C321.486542,582.869019 312.969818,589.893250 304.357697,596.798401 
	C291.862518,606.816895 279.331451,616.791321 266.745697,626.695618 
	C262.333221,630.168091 257.714111,633.378052 253.002838,637.024536 
	C250.931473,630.821045 249.046631,624.300842 247.527664,617.383789 
	C254.552063,612.197571 261.327393,607.560852 267.839569,602.580078 
	C275.979370,596.354309 283.971802,589.929871 291.899872,583.434998 
	C299.683380,577.058594 307.306519,570.486389 315.000000,564.000122 
	C319.892883,567.781189 324.785767,571.562256 329.862244,575.620728 
z"/>
<path fill="#80B7B3" opacity="1.000000" stroke="none" 
	d="
M314.795929,563.733887 
	C307.306519,570.486389 299.683380,577.058594 291.899872,583.434998 
	C283.971802,589.929871 275.979370,596.354309 267.839569,602.580078 
	C261.327393,607.560852 254.552063,612.197571 247.542053,616.991394 
	C246.521118,609.949585 245.851654,602.903442 245.658447,595.424561 
	C247.459732,594.455688 248.989090,594.184082 250.078430,593.342773 
	C261.957245,584.168457 273.853455,575.012268 285.549622,565.608215 
	C289.684265,562.283813 293.284851,558.295166 297.129272,554.609741 
	C302.950134,557.562378 308.770996,560.515015 314.795929,563.733887 
z"/>
<path fill="#E0AE71" opacity="1.000000" stroke="none" 
	d="
M320.352081,714.019287 
	C320.763214,712.523499 321.210297,710.816101 322.315704,709.929749 
	C337.356812,697.869507 352.470856,685.899780 367.632874,673.991699 
	C368.869629,673.020447 370.587555,672.661804 372.436829,672.013550 
	C372.316925,683.140015 371.473175,694.156250 364.570709,703.638489 
	C356.219849,715.110474 344.645660,718.328003 331.241211,716.631348 
	C327.679535,716.180542 324.207367,715.022644 320.352081,714.019287 
z"/>
<path fill="#71B8BC" opacity="1.000000" stroke="none" 
	d="
M296.839050,554.387939 
	C293.284851,558.295166 289.684265,562.283813 285.549622,565.608215 
	C273.853455,575.012268 261.957245,584.168457 250.078430,593.342773 
	C248.989090,594.184082 247.459732,594.455688 245.787048,594.993408 
	C245.960861,584.679565 247.501678,574.789734 253.509171,565.838562 
	C261.968994,553.233459 273.944031,550.554199 287.826935,552.373535 
	C290.762115,552.758301 293.642944,553.557800 296.839050,554.387939 
z"/>
</svg>